<svg xmlns="http://www.w3.org/2000/svg" viewBox="0 0 1600 900"><defs><linearGradient id="g" x1="0" x2="1"><stop stop-color="#07152f"/><stop offset="1" stop-color="#1769ff"/></linearGradient></defs><rect width="1600" height="900" fill="#b8d8e9"/><rect y="610" width="1600" height="290" fill="#536979"/><path d="M0 650L310 470 590 610 900 430 1260 600 1600 450V900H0Z" fill="#40576b"/><g stroke="#26394d" stroke-width="18" fill="none"><path d="M1050 620V170M1060 190l350 240M1060 250L790 450"/></g><g fill="#aab8c2"><rect x="650" y="500" width="420" height="120"/><rect x="720" y="390" width="300" height="110"/><rect x="790" y="300" width="160" height="90"/></g><g transform="translate(300 220)"><circle cx="130" cy="90" r="55" fill="#c88763"/><path d="M70 90Q130 10 190 90" fill="#f4c542"/><path d="M55 160Q130 115 205 160L225 430H35Z" fill="#10213f"/><path d="M70 175L190 175 215 370 45 370Z" fill="#f2e95d"/><rect x="75" y="210" width="110" height="90" rx="8" fill="#1769ff"/><path d="M90 230h80M90 250h55M90 270h70" stroke="#b9e8ff" stroke-width="7"/></g><rect x="55" y="55" width="430" height="170" rx="20" fill="#07152f" opacity=".94"/><text x="85" y="115" font-family="Arial" font-size="48" font-weight="700" fill="white">BuildWise AI</text><text x="85" y="160" font-family="Arial" font-size="25" fill="#72d7ff">CONSTRUCTION INTELLIGENCE</text><text x="85" y="198" font-family="Arial" font-size="19" fill="#c9d8f0">Turn field data into better decisions.</text><g transform="translate(1120 75)"><rect width="390" height="280" rx="22" fill="#07152f" opacity=".9"/><text x="28" y="48" fill="white" font-family="Arial" font-size="19">PROJECT INTELLIGENCE</text><text x="28" y="92" fill="#72d7ff" font-family="Arial" font-size="18">Project progress</text><text x="28" y="125" fill="white" font-family="Arial" font-size="34" font-weight="700">72%</text><rect x="28" y="140" width="330" height="12" rx="6" fill="#334a68"/><rect x="28" y="140" width="238" height="12" rx="6" fill="#35c6ff"/><text x="28" y="195" fill="#72d7ff" font-family="Arial" font-size="18">Schedule confidence</text><text x="28" y="228" fill="white" font-family="Arial" font-size="34" font-weight="700">86%</text><rect x="28" y="244" width="330" height="12" rx="6" fill="#334a68"/><rect x="28" y="244" width="284" height="12" rx="6" fill="#1769ff"/></g></svg>