<svg xmlns="http://www.w3.org/2000/svg" viewBox="0 0 1200 700"><rect width="1200" height="700" fill="#a9d8ef"/><path d="M0 500L260 300 520 450 790 250 1200 430V700H0Z" fill="#557767"/><path d="M0 570L1200 350" stroke="#536579" stroke-width="45"/><g fill="#d7e1e8"><rect x="450" y="300" width="300" height="35"/><rect x="520" y="250" width="35" height="180"/><rect x="680" y="220" width="35" height="180"/></g><g transform="translate(690 75)" stroke="#07152f" stroke-width="10" fill="#e7edf3"><ellipse cx="100" cy="80" rx="55" ry="35"/><path d="M55 80L0 40M145 80L200 40M55 80L0 120M145 80L200 120"/></g><rect x="50" y="55" width="560" height="135" rx="20" fill="#07152f" opacity=".94"/><text x="82" y="105" font-family="Arial" font-size="27" fill="#72d7ff">FUTURE-READY</text><text x="82" y="145" font-family="Arial" font-size="25" font-weight="700" fill="white">Drone Mapping • AI Vision • Digital Twins</text></svg>